<mxfile host="www.draw.io" modified="2020-02-01T08:22:24.702Z" agent="Mozilla/5.0 (Windows NT 10.0; Win64; x64) AppleWebKit/537.36 (KHTML, like Gecko) Chrome/79.0.3945.130 Safari/537.36" etag="jRD1DZuKAiGdFZWS7DRI" version="12.6.2" type="github">
  <diagram id="vqOPeriuNhsS36IYpZsW" name="Page-1">
    <mxGraphModel dx="867" dy="478" grid="1" gridSize="10" guides="1" tooltips="1" connect="1" arrows="1" fold="1" page="1" pageScale="1" pageWidth="850" pageHeight="1100" math="0" shadow="0">
      <root>
        <mxCell id="0"/>
        <mxCell id="1" parent="0"/>
        <mxCell id="Gr3yjJfZirMm1dBhPdIz-1" value="" style="endArrow=none;html=1;" edge="1" parent="1">
          <mxGeometry width="50" height="50" relative="1" as="geometry">
            <mxPoint x="240" y="280" as="sourcePoint"/>
            <mxPoint x="240" y="120" as="targetPoint"/>
          </mxGeometry>
        </mxCell>
        <mxCell id="Gr3yjJfZirMm1dBhPdIz-2" value="" style="endArrow=none;html=1;" edge="1" parent="1">
          <mxGeometry width="50" height="50" relative="1" as="geometry">
            <mxPoint x="240" y="280" as="sourcePoint"/>
            <mxPoint x="440" y="280" as="targetPoint"/>
          </mxGeometry>
        </mxCell>
        <mxCell id="Gr3yjJfZirMm1dBhPdIz-3" value="" style="endArrow=none;html=1;" edge="1" parent="1">
          <mxGeometry width="50" height="50" relative="1" as="geometry">
            <mxPoint x="440" y="280" as="sourcePoint"/>
            <mxPoint x="440" y="120" as="targetPoint"/>
          </mxGeometry>
        </mxCell>
        <mxCell id="Gr3yjJfZirMm1dBhPdIz-4" value="" style="endArrow=none;html=1;" edge="1" parent="1">
          <mxGeometry width="50" height="50" relative="1" as="geometry">
            <mxPoint x="240" y="120" as="sourcePoint"/>
            <mxPoint x="290" y="120" as="targetPoint"/>
          </mxGeometry>
        </mxCell>
        <mxCell id="Gr3yjJfZirMm1dBhPdIz-5" value="" style="endArrow=none;html=1;" edge="1" parent="1">
          <mxGeometry width="50" height="50" relative="1" as="geometry">
            <mxPoint x="290" y="150" as="sourcePoint"/>
            <mxPoint x="290" y="120" as="targetPoint"/>
          </mxGeometry>
        </mxCell>
        <mxCell id="Gr3yjJfZirMm1dBhPdIz-6" value="" style="endArrow=none;html=1;" edge="1" parent="1">
          <mxGeometry width="50" height="50" relative="1" as="geometry">
            <mxPoint x="310" y="150" as="sourcePoint"/>
            <mxPoint x="310" y="120" as="targetPoint"/>
          </mxGeometry>
        </mxCell>
        <mxCell id="Gr3yjJfZirMm1dBhPdIz-7" value="" style="endArrow=none;html=1;" edge="1" parent="1">
          <mxGeometry width="50" height="50" relative="1" as="geometry">
            <mxPoint x="390" y="120" as="sourcePoint"/>
            <mxPoint x="440" y="120" as="targetPoint"/>
          </mxGeometry>
        </mxCell>
        <mxCell id="Gr3yjJfZirMm1dBhPdIz-8" value="" style="endArrow=none;html=1;" edge="1" parent="1">
          <mxGeometry width="50" height="50" relative="1" as="geometry">
            <mxPoint x="370" y="150" as="sourcePoint"/>
            <mxPoint x="370" y="120" as="targetPoint"/>
          </mxGeometry>
        </mxCell>
        <mxCell id="Gr3yjJfZirMm1dBhPdIz-9" value="" style="endArrow=none;html=1;" edge="1" parent="1">
          <mxGeometry width="50" height="50" relative="1" as="geometry">
            <mxPoint x="390" y="150" as="sourcePoint"/>
            <mxPoint x="390" y="120" as="targetPoint"/>
          </mxGeometry>
        </mxCell>
        <mxCell id="Gr3yjJfZirMm1dBhPdIz-10" value="" style="endArrow=none;html=1;" edge="1" parent="1">
          <mxGeometry width="50" height="50" relative="1" as="geometry">
            <mxPoint x="290" y="150" as="sourcePoint"/>
            <mxPoint x="310" y="150" as="targetPoint"/>
          </mxGeometry>
        </mxCell>
        <mxCell id="Gr3yjJfZirMm1dBhPdIz-11" value="" style="endArrow=none;html=1;" edge="1" parent="1">
          <mxGeometry width="50" height="50" relative="1" as="geometry">
            <mxPoint x="370" y="150" as="sourcePoint"/>
            <mxPoint x="390" y="150" as="targetPoint"/>
          </mxGeometry>
        </mxCell>
        <mxCell id="Gr3yjJfZirMm1dBhPdIz-12" value="" style="endArrow=none;html=1;" edge="1" parent="1">
          <mxGeometry width="50" height="50" relative="1" as="geometry">
            <mxPoint x="310" y="120" as="sourcePoint"/>
            <mxPoint x="370" y="120" as="targetPoint"/>
          </mxGeometry>
        </mxCell>
        <mxCell id="Gr3yjJfZirMm1dBhPdIz-13" value="&lt;b&gt;PCB&lt;/b&gt;" style="text;html=1;align=center;verticalAlign=middle;resizable=0;points=[];autosize=1;" vertex="1" parent="1">
          <mxGeometry x="306" y="217" width="40" height="20" as="geometry"/>
        </mxCell>
      </root>
    </mxGraphModel>
  </diagram>
</mxfile>
